<svg width="680" height="300" viewBox="0 0 680 300" xmlns="http://www.w3.org/2000/svg">
  <rect width="680" height="300" fill="#0a0a0a"/>
  <g transform="translate(48, 50)">
    <path d="M125 150 Q115 90 90 40 Q75 20 60 10 Q55 40 45 80 Q30 110 10 135 Q0 145 0 150 Z" fill="#c0392b"/>
  </g>
  <text x="420" y="145" font-family="Arial Black, sans-serif" font-size="68" font-weight="900" fill="#f5f3ef" text-anchor="middle" letter-spacing="4">JAWS</text>
  <text x="420" y="215" font-family="Arial Black, sans-serif" font-size="38" font-weight="900" fill="#c0392b" text-anchor="middle" letter-sp
pip install cairosvg --break-system-packages
cd ~/Documents/GitHub/Jaws-Advantage
cairosvg logo.svg -o favicon.png -W 512 -H 512
cat > ~/Documents/GitHub/Jaws-Advantage/logo.svg << 'EOF'
<svg width="680" height="300" viewBox="0 0 680 300" xmlns="http://www.w3.org/2000/svg">
  <rect width="680" height="300" fill="#0a0a0a"/>
  <g transform="translate(48, 50)">
    <path d="M125 150 Q115 90 90 40 Q75 20 60 10 Q55 40 45 80 Q30 110 10 135 Q0 145 0 150 Z" fill="#c0392b"/>
  </g>
  <text x="420" y="14
cat > ~/Documents/GitHub/Jaws-Advantage/logo.svg << 'EOF'
<svg width="680" height="300" viewBox="0 0 680 300" xmlns="http://www.w3.org/2000/svg">
  <rect width="680" height="300" fill="#0a0a0a"/>
  <g transform="translate(48, 50)">
    <path d="M125 150 Q115 90 90 40 Q75 20 60 10 Q55 40 45 80 Q30 110 10 135 Q0 145 0 150 Z" fill="#c0392b"/>
  </g>
  <text x="420" y="145" font-family="Arial Black, sans-serif" font-size="68" font-weight="900" fill="#f5f3ef" text-anchor="middle" letter-spacing="4">JAWS</text>
  <text x="420" y="215" font-family="Arial Black, sans-serif" font-size="38" font-weight="900" fill="#c0392b" text-anchor="middle" letter-spacing="6">ADVANTAGE</text>
</svg>
